<?xml version="1.0" encoding="UTF-8" standalone="no"?>
<!-- Created with Inkscape (http://www.inkscape.org/) -->

<svg
   xmlns:dc="http://purl.org/dc/elements/1.1/"
   xmlns:cc="http://creativecommons.org/ns#"
   xmlns:rdf="http://www.w3.org/1999/02/22-rdf-syntax-ns#"
   xmlns:svg="http://www.w3.org/2000/svg"
   xmlns="http://www.w3.org/2000/svg"
   xmlns:sodipodi="http://sodipodi.sourceforge.net/DTD/sodipodi-0.dtd"
   xmlns:inkscape="http://www.inkscape.org/namespaces/inkscape"
   width="20"
   height="20"
   id="svg4626"
   version="1.1"
   inkscape:version="0.48.2 r9819"
   sodipodi:docname="associate.svg"
   inkscape:export-filename="D:\School\Comp 1140\Eclipse Projects\twt\WildWest\src\game\associate.png"
   inkscape:export-xdpi="90"
   inkscape:export-ydpi="90">
  <defs
     id="defs4628">
    <linearGradient
       id="linearGradient5186">
      <stop
         style="stop-color:#333333;stop-opacity:1;"
         offset="0"
         id="stop5188" />
      <stop
         style="stop-color:#545454;stop-opacity:1;"
         offset="1"
         id="stop5190" />
    </linearGradient>
  </defs>
  <sodipodi:namedview
     id="base"
     pagecolor="#ffffff"
     bordercolor="#666666"
     borderopacity="1.0"
     inkscape:pageopacity="0.0"
     inkscape:pageshadow="2"
     inkscape:zoom="16"
     inkscape:cx="5.9777436"
     inkscape:cy="1.3024001"
     inkscape:document-units="px"
     inkscape:current-layer="layer8"
     showgrid="true"
     inkscape:snap-grids="true"
     inkscape:window-width="1920"
     inkscape:window-height="1018"
     inkscape:window-x="-8"
     inkscape:window-y="-8"
     inkscape:window-maximized="1">
    <inkscape:grid
       type="xygrid"
       id="grid4638"
       empspacing="5"
       visible="true"
       enabled="true"
       snapvisiblegridlinesonly="true" />
  </sodipodi:namedview>
  <metadata
     id="metadata4631">
    <rdf:RDF>
      <cc:Work
         rdf:about="">
        <dc:format>image/svg+xml</dc:format>
        <dc:type
           rdf:resource="http://purl.org/dc/dcmitype/StillImage" />
        <dc:title></dc:title>
      </cc:Work>
    </rdf:RDF>
  </metadata>
  <g
     inkscape:label="Layer 1"
     inkscape:groupmode="layer"
     id="layer1"
     transform="translate(0,-1032.3622)">
    <path
       sodipodi:type="arc"
       style="fill:#c57e52;fill-opacity:1;stroke:none"
       id="path5201"
       sodipodi:cx="9"
       sodipodi:cy="9"
       sodipodi:rx="9"
       sodipodi:ry="9"
       d="M 18,9 A 9,9 0 1 1 0,9 9,9 0 1 1 18,9 z"
       transform="translate(1,1032.3622)" />
    <path
       sodipodi:type="arc"
       style="fill:#e2b091;fill-opacity:1;stroke:none"
       id="path5201-3"
       sodipodi:cx="9"
       sodipodi:cy="9"
       sodipodi:rx="9"
       sodipodi:ry="9"
       d="M 18,9 A 9,9 0 1 1 0,9 9,9 0 1 1 18,9 z"
       transform="matrix(0.83333333,0,0,0.94444444,1,1032.3622)" />
  </g>
  <g
     inkscape:groupmode="layer"
     id="layer8"
     inkscape:label="Layer"
     transform="translate(0,10)">
    <path
       sodipodi:type="arc"
       style="fill:#000000;fill-opacity:1;stroke:none"
       id="path5211"
       sodipodi:cx="6"
       sodipodi:cy="7"
       sodipodi:rx="1"
       sodipodi:ry="1"
       d="M 7,7 A 1,1 0 1 1 5,7 1,1 0 1 1 7,7 z"
       transform="translate(-1,-10)" />
    <path
       sodipodi:type="arc"
       style="fill:#000000;fill-opacity:1;stroke:none"
       id="path5211-2"
       sodipodi:cx="6"
       sodipodi:cy="7"
       sodipodi:rx="1"
       sodipodi:ry="1"
       d="M 7,7 A 1,1 0 1 1 5,7 1,1 0 1 1 7,7 z"
       transform="translate(6,-10)" />
    <path
       style="fill:#000000;fill-opacity:1;stroke:none"
       d="M 1,12 20,10 C 20,10 14,20 9,20 7,20 1,12 1,12 z"
       id="path5234"
       inkscape:connector-curvature="0"
       transform="translate(0,-10)"
       sodipodi:nodetypes="cccc" />
  </g>
</svg>
