<?xml version="1.0" encoding="UTF-8" standalone="no"?>
<!-- Created with Inkscape (http://www.inkscape.org/) -->

<svg
   xmlns:dc="http://purl.org/dc/elements/1.1/"
   xmlns:cc="http://creativecommons.org/ns#"
   xmlns:rdf="http://www.w3.org/1999/02/22-rdf-syntax-ns#"
   xmlns:svg="http://www.w3.org/2000/svg"
   xmlns="http://www.w3.org/2000/svg"
   xmlns:sodipodi="http://sodipodi.sourceforge.net/DTD/sodipodi-0.dtd"
   xmlns:inkscape="http://www.inkscape.org/namespaces/inkscape"
   width="22"
   height="35"
   id="svg4033"
   version="1.1"
   inkscape:version="0.48.2 r9819"
   sodipodi:docname="New document 11">
  <defs
     id="defs4035" />
  <sodipodi:namedview
     id="base"
     pagecolor="#ffffff"
     bordercolor="#666666"
     borderopacity="1.0"
     inkscape:pageopacity="0.0"
     inkscape:pageshadow="2"
     inkscape:zoom="1"
     inkscape:cx="-385.53779"
     inkscape:cy="62.541638"
     inkscape:document-units="px"
     inkscape:current-layer="layer7"
     showgrid="false"
     inkscape:window-width="1920"
     inkscape:window-height="1018"
     inkscape:window-x="-8"
     inkscape:window-y="-8"
     inkscape:window-maximized="1" />
  <metadata
     id="metadata4038">
    <rdf:RDF>
      <cc:Work
         rdf:about="">
        <dc:format>image/svg+xml</dc:format>
        <dc:type
           rdf:resource="http://purl.org/dc/dcmitype/StillImage" />
        <dc:title></dc:title>
      </cc:Work>
    </rdf:RDF>
  </metadata>
  <g
     inkscape:label="Layer 1"
     inkscape:groupmode="layer"
     id="layer1"
     transform="translate(0,-1017.3622)" />
  <g
     inkscape:groupmode="layer"
     id="layer7"
     inkscape:label="Layer">
    <path
       style="fill:#800505;fill-opacity:1;stroke:none"
       d="m 7.3214284,2.1785714 c 0,0 2.1428573,8.5267846 -0.8482142,14.5535716 -0.7079525,1.426471 -3.7492081,5.03121 -4.0215885,7.952797 -0.5983402,6.417872 4.6275827,9.51332 8.1733743,9.457917 5.714286,-0.08928 9.007763,-3.572315 9.553571,-9.732143 C 20.803571,17.357143 7.3214284,2.1785714 7.3214284,2.1785714 z"
       id="path4046"
       inkscape:connector-curvature="0"
       sodipodi:nodetypes="cssssc" />
    <path
       style="fill:#d00909;fill-opacity:1;stroke:none"
       d="m 7.3667054,2.1871345 c 0,0 1.3076302,7.8206365 -0.3542439,13.2175475 -0.4145977,1.3464 -4.619526,5.889313 -4.6248916,10.023415 -0.00749,5.76901 4.7316524,7.715485 7.7072581,7.665871 4.795393,-0.07995 8.05033,-4.404319 7.481582,-11.08108 C 17.038457,15.697637 7.3667054,2.1871345 7.3667054,2.1871345 z"
       id="path4046-9"
       inkscape:connector-curvature="0"
       sodipodi:nodetypes="cssssc" />
  </g>
</svg>
