<?xml version="1.0" encoding="UTF-8" standalone="no"?>
<!-- Created with Inkscape (http://www.inkscape.org/) -->

<svg
   xmlns:dc="http://purl.org/dc/elements/1.1/"
   xmlns:cc="http://creativecommons.org/ns#"
   xmlns:rdf="http://www.w3.org/1999/02/22-rdf-syntax-ns#"
   xmlns:svg="http://www.w3.org/2000/svg"
   xmlns="http://www.w3.org/2000/svg"
   xmlns:sodipodi="http://sodipodi.sourceforge.net/DTD/sodipodi-0.dtd"
   xmlns:inkscape="http://www.inkscape.org/namespaces/inkscape"
   width="40"
   height="40"
   id="svg3859"
   version="1.1"
   inkscape:version="0.48.2 r9819"
   sodipodi:docname="bone1.svg"
   inkscape:export-filename="D:\School\Comp 1140\Eclipse Projects\twt\WildWest\src\game\bone1.png"
   inkscape:export-xdpi="90"
   inkscape:export-ydpi="90">
  <defs
     id="defs3861" />
  <sodipodi:namedview
     id="base"
     pagecolor="#ffffff"
     bordercolor="#666666"
     borderopacity="1.0"
     inkscape:pageopacity="0.0"
     inkscape:pageshadow="2"
     inkscape:zoom="16"
     inkscape:cx="-3.4391796"
     inkscape:cy="16.248921"
     inkscape:document-units="px"
     inkscape:current-layer="layer1"
     showgrid="false"
     width="40px"
     borderlayer="true"
     inkscape:showpageshadow="false"
     showguides="true"
     inkscape:guide-bbox="true"
     inkscape:window-width="1920"
     inkscape:window-height="1018"
     inkscape:window-x="-8"
     inkscape:window-y="-8"
     inkscape:window-maximized="1">
    <sodipodi:guide
       orientation="0,1"
       position="-5.9090909,20"
       id="guide3867" />
  </sodipodi:namedview>
  <metadata
     id="metadata3864">
    <rdf:RDF>
      <cc:Work
         rdf:about="">
        <dc:format>image/svg+xml</dc:format>
        <dc:type
           rdf:resource="http://purl.org/dc/dcmitype/StillImage" />
        <dc:title></dc:title>
      </cc:Work>
    </rdf:RDF>
  </metadata>
  <g
     inkscape:label="Layer 1"
     inkscape:groupmode="layer"
     id="layer1"
     transform="translate(0,-1012.3622)">
    <path
       style="fill:#f4e8cb;fill-opacity:1;stroke:none"
       d="m 15.347555,1021.2678 c -1.818387,3.8384 -4.244581,7.6227 -5.8172281,9.735 0,0 -1.8109586,-1.6735 -2.6855582,1.0784 -0.4969782,1.5637 -0.9344246,2.3655 0.9224109,2.7185 0.8013407,0.1522 1.8262225,-0.4654 1.8262225,-0.4654 0,0 -0.00192,2.5121 1.3019679,2.5121 1.236325,0 3.935569,-0.1792 1.831988,-3.5672 -0.816256,-1.3146 -0.840765,-0.917 -0.840765,-0.917 2.413799,-3.1668 3.654294,-7.0824 5.140932,-9.5685 0,0 0.735103,3.1826 2.54145,-0.4002 0.536736,-1.0645 0.70036,-1.5862 0.283283,-2.2544 -0.797079,-1.277 -2.932297,0.2061 -2.932297,0.2061 0,0 0.01721,-1.2773 -0.717348,-1.9374 -0.734562,-0.6601 -2.037167,-0.498 -2.760769,0.8432 -0.723603,1.3413 -0.27946,2.8065 1.905711,2.0168 z"
       id="path3869"
       inkscape:connector-curvature="0"
       sodipodi:nodetypes="ccsscssccsscszc" />
    <path
       style="fill:#efddbd;fill-opacity:1;stroke:none"
       d="m 33.189784,1046.2989 c -0.668164,0.2863 -2.063345,-4.0232 -2.329179,-6.2085 0,0 2.688722,0.8416 1.697816,-0.6868 -0.563019,-0.8685 -1.370254,-2.6065 -2.719554,-1.7262 -0.582249,0.38 -0.874153,1.1759 -0.874153,1.1759 0,0 -1.282267,-1.4881 -2.091569,-0.7753 -0.767396,0.6758 -2.459685,2.748 0.734282,2.8912 1.239349,0.055 1.062158,-0.7705 1.062158,-0.7705 1.211483,2.1185 1.447573,3.9993 1.168522,6.0824 0,0 -2.382961,-0.1894 -1.5074,2.1655 0.260311,0.6996 1.543574,0.4718 2.946896,0.4542 1.224158,-0.015 0.825557,-1.4335 0.825557,-1.4335 0,0 0.811688,1.2272 1.635552,1.0776 0.823802,-0.1497 2.100679,-0.1863 1.802316,-1.0938 -0.298363,-0.9075 -1.435013,-2.6482 -2.351244,-1.1522 z"
       id="path3869-1"
       inkscape:connector-curvature="0"
       sodipodi:nodetypes="ccsscssccsscszc" />
  </g>
</svg>
