<?xml version="1.0" encoding="UTF-8" standalone="no"?>
<!-- Created with Inkscape (http://www.inkscape.org/) -->

<svg
   xmlns:dc="http://purl.org/dc/elements/1.1/"
   xmlns:cc="http://creativecommons.org/ns#"
   xmlns:rdf="http://www.w3.org/1999/02/22-rdf-syntax-ns#"
   xmlns:svg="http://www.w3.org/2000/svg"
   xmlns="http://www.w3.org/2000/svg"
   xmlns:sodipodi="http://sodipodi.sourceforge.net/DTD/sodipodi-0.dtd"
   xmlns:inkscape="http://www.inkscape.org/namespaces/inkscape"
   width="40"
   height="40"
   id="svg3859"
   version="1.1"
   inkscape:version="0.48.2 r9819"
   sodipodi:docname="bone2.svg"
   inkscape:export-filename="D:\School\Comp 1140\Eclipse Projects\twt\WildWest\src\game\bone2.png"
   inkscape:export-xdpi="90"
   inkscape:export-ydpi="90">
  <defs
     id="defs3861" />
  <sodipodi:namedview
     id="base"
     pagecolor="#ffffff"
     bordercolor="#666666"
     borderopacity="1.0"
     inkscape:pageopacity="0.0"
     inkscape:pageshadow="2"
     inkscape:zoom="16"
     inkscape:cx="7.676813"
     inkscape:cy="23.748921"
     inkscape:document-units="px"
     inkscape:current-layer="layer1"
     showgrid="false"
     width="40px"
     borderlayer="true"
     inkscape:showpageshadow="false"
     showguides="true"
     inkscape:guide-bbox="true"
     inkscape:window-width="1920"
     inkscape:window-height="1018"
     inkscape:window-x="-8"
     inkscape:window-y="-8"
     inkscape:window-maximized="1">
    <sodipodi:guide
       orientation="0,1"
       position="-5.9090909,20"
       id="guide3867" />
  </sodipodi:namedview>
  <metadata
     id="metadata3864">
    <rdf:RDF>
      <cc:Work
         rdf:about="">
        <dc:format>image/svg+xml</dc:format>
        <dc:type
           rdf:resource="http://purl.org/dc/dcmitype/StillImage" />
        <dc:title></dc:title>
      </cc:Work>
    </rdf:RDF>
  </metadata>
  <g
     inkscape:label="Layer 1"
     inkscape:groupmode="layer"
     id="layer1"
     transform="translate(0,-1012.3622)">
    <path
       style="fill:#ffe6c3;fill-opacity:1;stroke:none"
       d="m 23.518158,1025.7844 c -3.21073,2.7946 -6.967706,5.2819 -9.268671,6.5778 0,0 -1.031589,-2.3199 -2.932799,-0.1348 -1.080349,1.2416 -1.8048151,1.801 -0.209967,2.9141 0.688289,0.4803 1.888757,0.3404 1.888757,0.3404 0,0 -0.991823,2.3315 0.225793,2.883 1.154499,0.523 3.745713,1.4983 3.116543,-2.537 -0.24418,-1.5657 -0.423747,-1.207 -0.423747,-1.207 3.502055,-1.9191 6.203535,-5.0298 8.571516,-6.7091 0,0 -0.567775,3.2657 2.530964,0.7034 0.920736,-0.7613 1.279112,-1.1765 1.152973,-1.9733 -0.241064,-1.5228 -2.819433,-1.049 -2.819433,-1.049 0,0 0.519427,-1.1785 0.09362,-2.1021 -0.425809,-0.9236 -1.706064,-1.3241 -2.910353,-0.3849 -1.204289,0.9392 -1.366979,2.4875 0.984802,2.6785 z"
       id="path3869"
       inkscape:connector-curvature="0"
       sodipodi:nodetypes="ccsscssccsscszc" />
  </g>
</svg>
