<?xml version="1.0" encoding="UTF-8" standalone="no"?>
<!-- Created with Inkscape (http://www.inkscape.org/) -->

<svg
   xmlns:dc="http://purl.org/dc/elements/1.1/"
   xmlns:cc="http://creativecommons.org/ns#"
   xmlns:rdf="http://www.w3.org/1999/02/22-rdf-syntax-ns#"
   xmlns:svg="http://www.w3.org/2000/svg"
   xmlns="http://www.w3.org/2000/svg"
   xmlns:sodipodi="http://sodipodi.sourceforge.net/DTD/sodipodi-0.dtd"
   xmlns:inkscape="http://www.inkscape.org/namespaces/inkscape"
   width="80"
   height="80"
   id="svg2"
   version="1.1"
   inkscape:version="0.48.2 r9819"
   sodipodi:docname="cap1.svg"
   inkscape:export-filename="D:\School\Comp 1140\Eclipse Projects\twt\WildWest\src\game\cap1.png"
   inkscape:export-xdpi="90"
   inkscape:export-ydpi="90">
  <defs
     id="defs4">
    <inkscape:path-effect
       effect="spiro"
       id="path-effect3032"
       is_visible="true" />
  </defs>
  <sodipodi:namedview
     id="base"
     pagecolor="#ffffff"
     bordercolor="#666666"
     borderopacity="1.0"
     inkscape:pageopacity="0"
     inkscape:pageshadow="2"
     inkscape:zoom="5.6568542"
     inkscape:cx="10.108482"
     inkscape:cy="45.201514"
     inkscape:document-units="px"
     inkscape:current-layer="g6763"
     showgrid="true"
     showguides="true"
     inkscape:guide-bbox="true"
     inkscape:snap-grids="true"
     inkscape:window-width="1920"
     inkscape:window-height="1018"
     inkscape:window-x="-8"
     inkscape:window-y="-8"
     inkscape:window-maximized="1">
    <sodipodi:guide
       orientation="1,0"
       position="10,37"
       id="guide2985" />
    <inkscape:grid
       type="xygrid"
       id="grid2987"
       empspacing="5"
       visible="true"
       enabled="true"
       snapvisiblegridlinesonly="true" />
    <sodipodi:guide
       orientation="1,0"
       position="20,36"
       id="guide2989" />
    <sodipodi:guide
       orientation="1,0"
       position="30,36"
       id="guide2991" />
    <sodipodi:guide
       orientation="0,1"
       position="28,30"
       id="guide2993" />
    <sodipodi:guide
       orientation="0,1"
       position="29,20"
       id="guide2995" />
    <sodipodi:guide
       orientation="0,1"
       position="36,10"
       id="guide2997" />
  </sodipodi:namedview>
  <metadata
     id="metadata7">
    <rdf:RDF>
      <cc:Work
         rdf:about="">
        <dc:format>image/svg+xml</dc:format>
        <dc:type
           rdf:resource="http://purl.org/dc/dcmitype/StillImage" />
        <dc:title></dc:title>
      </cc:Work>
    </rdf:RDF>
  </metadata>
  <g
     inkscape:groupmode="layer"
     id="layer2"
     inkscape:label="Layer"
     transform="translate(0,40)" />
  <g
     inkscape:label="Layer 1"
     inkscape:groupmode="layer"
     id="layer1"
     transform="translate(0,-972.3622)"
     style="display:inline">
    <g
       id="g6763"
       transform="matrix(1.906217,0,0,1.906217,2.344575,-953.85714)">
      <path
         inkscape:export-ydpi="90"
         inkscape:export-xdpi="90"
         sodipodi:nodetypes="ccccccccc"
         inkscape:connector-curvature="0"
         id="path3769"
         d="M 4,3 C 15.157585,3.4487773 21.646773,5 33,6 L 34.626845,7 35.43779,12 36,24 l -1,7 0.491985,11.721947 -31.4759548,0 z"
         style="fill:#ff9b13;fill-opacity:1;stroke:none"
         transform="translate(0,1012.3622)" />
      <path
         sodipodi:nodetypes="cssccssssc"
         inkscape:connector-curvature="0"
         id="path3034"
         d="m 38.114981,1052.4612 c 0,0 -0.114981,-6.099 0.885019,-17.099 0.7243,-7.9672 0,-5 0,-9 0,-4 0,-8 0,-10 -1.8598,-5.1771 -12,-2 -16,-3 0,8 11,4 11,8 0,4 0.3222,3.933 1,8 1,6 -2,6 -1,10 1,4 -1.131011,1.099 -1.131011,13.099 0,3 5.245992,0 5.245992,0 z"
         style="fill:#a7632d;fill-opacity:1;stroke:none" />
      <a
         transform="matrix(0,1,-1,0,1052.3622,1012.3622)"
         id="a3840">
        <path
           style="fill:#a7632d;fill-opacity:1;stroke:none;display:inline"
           d="m 40.098951,1045.7232 c 0,0 -4.098951,-0.361 -10.098951,-1.361 -7.891151,-1.3152 -6.885019,1.361 -10.885019,1.361 -4,0 -7.114981,-1.361 -9.114981,-1.361 -0.748981,0 -5.4326662,2.3478 -6,-2 -0.2589447,-1.9845 1.2184539,-12.6554 2,-15 4,-12 0,-13.115 -5.24599246,-13.115 -2.00000004,0 -3.00000004,32.722 0,36.722 7.99999996,0 5.36542246,-2.5771 9.24599246,-1.607 4,1 8.932994,0.6778 13,0 12,1 11.136225,1.5517 17.098951,1.607 3,0 0,-5.246 0,-5.246 z"
           id="path3034-9"
           inkscape:connector-curvature="0"
           sodipodi:nodetypes="csssssccsccc" />
      </a>
    </g>
  </g>
</svg>
