<?xml version="1.0" encoding="UTF-8" standalone="no"?>
<!-- Created with Inkscape (http://www.inkscape.org/) -->

<svg
   xmlns:dc="http://purl.org/dc/elements/1.1/"
   xmlns:cc="http://creativecommons.org/ns#"
   xmlns:rdf="http://www.w3.org/1999/02/22-rdf-syntax-ns#"
   xmlns:svg="http://www.w3.org/2000/svg"
   xmlns="http://www.w3.org/2000/svg"
   xmlns:sodipodi="http://sodipodi.sourceforge.net/DTD/sodipodi-0.dtd"
   xmlns:inkscape="http://www.inkscape.org/namespaces/inkscape"
   width="80"
   height="80"
   id="svg2"
   version="1.1"
   inkscape:version="0.48.2 r9819"
   sodipodi:docname="corner1.svg"
   inkscape:export-filename="D:\School\Comp 1140\Eclipse Projects\twt\WildWest\src\game\corner1.png"
   inkscape:export-xdpi="90"
   inkscape:export-ydpi="90">
  <defs
     id="defs4">
    <inkscape:path-effect
       effect="spiro"
       id="path-effect3032"
       is_visible="true" />
  </defs>
  <sodipodi:namedview
     id="base"
     pagecolor="#ffffff"
     bordercolor="#666666"
     borderopacity="1.0"
     inkscape:pageopacity="0"
     inkscape:pageshadow="2"
     inkscape:zoom="5.6"
     inkscape:cx="11.359427"
     inkscape:cy="30.113484"
     inkscape:document-units="px"
     inkscape:current-layer="g6802"
     showgrid="true"
     showguides="true"
     inkscape:guide-bbox="true"
     inkscape:snap-grids="false"
     inkscape:window-width="1920"
     inkscape:window-height="1018"
     inkscape:window-x="-8"
     inkscape:window-y="-8"
     inkscape:window-maximized="1"
     inkscape:snap-to-guides="false">
    <sodipodi:guide
       orientation="1,0"
       position="10,37"
       id="guide2985" />
    <inkscape:grid
       type="xygrid"
       id="grid2987"
       empspacing="5"
       visible="true"
       enabled="true"
       snapvisiblegridlinesonly="true" />
    <sodipodi:guide
       orientation="1,0"
       position="20,36"
       id="guide2989" />
    <sodipodi:guide
       orientation="1,0"
       position="30,36"
       id="guide2991" />
    <sodipodi:guide
       orientation="0,1"
       position="28,30"
       id="guide2993" />
    <sodipodi:guide
       orientation="0,1"
       position="29,20"
       id="guide2995" />
    <sodipodi:guide
       orientation="0,1"
       position="36,10"
       id="guide2997" />
  </sodipodi:namedview>
  <metadata
     id="metadata7">
    <rdf:RDF>
      <cc:Work
         rdf:about="">
        <dc:format>image/svg+xml</dc:format>
        <dc:type
           rdf:resource="http://purl.org/dc/dcmitype/StillImage" />
        <dc:title></dc:title>
      </cc:Work>
    </rdf:RDF>
  </metadata>
  <g
     inkscape:groupmode="layer"
     id="layer2"
     inkscape:label="Layer"
     transform="translate(0,40)" />
  <g
     inkscape:label="Layer 1"
     inkscape:groupmode="layer"
     id="layer1"
     transform="translate(0,-972.3622)"
     style="display:inline">
    <g
       id="g6802"
       transform="matrix(1.8717391,0,0,1.8717391,0.130436,-915.61789)">
      <path
         inkscape:export-ydpi="90"
         inkscape:export-xdpi="90"
         sodipodi:nodetypes="cccccccccc"
         inkscape:connector-curvature="0"
         id="path3769"
         d="m 5.2729379,1056.6502 -1,-18 -1,-15 4,-9 5.0000001,-1 12.063135,-2.3156 6.936865,1.3156 16,1 -1,40 z"
         style="fill:#ff9b13;fill-opacity:1;stroke:none" />
      <path
         sodipodi:nodetypes="cssscsscccsssssc"
         inkscape:connector-curvature="0"
         id="path3034"
         d="m 42.671312,1011.3483 c 0,0 -9.921354,-1.5567 -17.921354,-1.5567 -8,0 -8.79177,-1.1146 -11.463083,-1.1146 -3.777806,0 -9.2576746,0.9559 -11.2576737,0.954 -2.00961212,-0 -1.56153413,6.2515 -0.190808,9.7312 2.0034843,5.2125 -0.5654554,4.288 -0.5654554,14.288 0,10 1.3286875,12.7678 1.3286875,17.7678 0,5 5.3426249,0 5.3426249,0 0,0 3.5759087,-0.569 0,-8.014 -2.2015875,-3.0572 1.2479527,-7.817 0,-10.6852 -1,-2 0,-6.014 0,-8.014 0,-2 -3.1977767,-9.104 0.8022234,-9.104 4.0000003,0 5.0243903,-2.1996 9.0243903,-1.1996 4,1 5.166418,1.7225 9.166418,0.7225 4,-1 3.73403,1.5672 15.73403,1.5672 4,0 0,-5.3426 0,-5.3426 z"
         style="fill:#a7632d;fill-opacity:1;stroke:none" />
    </g>
  </g>
</svg>
