<?xml version="1.0" encoding="UTF-8" standalone="no"?>
<!-- Created with Inkscape (http://www.inkscape.org/) -->

<svg
   xmlns:dc="http://purl.org/dc/elements/1.1/"
   xmlns:cc="http://creativecommons.org/ns#"
   xmlns:rdf="http://www.w3.org/1999/02/22-rdf-syntax-ns#"
   xmlns:svg="http://www.w3.org/2000/svg"
   xmlns="http://www.w3.org/2000/svg"
   xmlns:sodipodi="http://sodipodi.sourceforge.net/DTD/sodipodi-0.dtd"
   xmlns:inkscape="http://www.inkscape.org/namespaces/inkscape"
   width="80"
   height="80"
   id="svg2"
   version="1.1"
   inkscape:version="0.48.2 r9819"
   sodipodi:docname="edge2.svg"
   inkscape:export-filename="D:\School\Comp 1140\Eclipse Projects\twt\WildWest\src\game\edge2.png"
   inkscape:export-xdpi="90"
   inkscape:export-ydpi="90">
  <defs
     id="defs4">
    <inkscape:path-effect
       effect="spiro"
       id="path-effect3032"
       is_visible="true" />
  </defs>
  <sodipodi:namedview
     id="base"
     pagecolor="#ffffff"
     bordercolor="#666666"
     borderopacity="1.0"
     inkscape:pageopacity="0"
     inkscape:pageshadow="2"
     inkscape:zoom="5.6"
     inkscape:cx="2.3948527"
     inkscape:cy="18.076185"
     inkscape:document-units="px"
     inkscape:current-layer="g6920"
     showgrid="true"
     showguides="true"
     inkscape:guide-bbox="true"
     inkscape:snap-grids="true"
     inkscape:window-width="1920"
     inkscape:window-height="1018"
     inkscape:window-x="-8"
     inkscape:window-y="-8"
     inkscape:window-maximized="1"
     inkscape:snap-to-guides="false">
    <sodipodi:guide
       orientation="1,0"
       position="10,37"
       id="guide2985" />
    <inkscape:grid
       type="xygrid"
       id="grid2987"
       empspacing="5"
       visible="true"
       enabled="true"
       snapvisiblegridlinesonly="true" />
    <sodipodi:guide
       orientation="1,0"
       position="20,36"
       id="guide2989" />
    <sodipodi:guide
       orientation="1,0"
       position="30,36"
       id="guide2991" />
    <sodipodi:guide
       orientation="0,1"
       position="28,30"
       id="guide2993" />
    <sodipodi:guide
       orientation="0,1"
       position="29,20"
       id="guide2995" />
    <sodipodi:guide
       orientation="0,1"
       position="36,10"
       id="guide2997" />
  </sodipodi:namedview>
  <metadata
     id="metadata7">
    <rdf:RDF>
      <cc:Work
         rdf:about="">
        <dc:format>image/svg+xml</dc:format>
        <dc:type
           rdf:resource="http://purl.org/dc/dcmitype/StillImage" />
        <dc:title></dc:title>
      </cc:Work>
    </rdf:RDF>
  </metadata>
  <g
     inkscape:groupmode="layer"
     id="layer2"
     inkscape:label="Layer"
     transform="translate(0,40)" />
  <g
     inkscape:label="Layer 1"
     inkscape:groupmode="layer"
     id="layer1"
     transform="translate(0,-972.3622)"
     style="display:inline">
    <g
       id="g6920"
       transform="matrix(1.9869782,0,0,1.9869782,2.4894102,-1037.9394)">
      <path
         inkscape:export-ydpi="90"
         inkscape:export-xdpi="90"
         sodipodi:nodetypes="ccccccccc"
         inkscape:connector-curvature="0"
         id="path3769"
         d="M -4,34.189055 C -3.5512227,23.03147 -3,16.348271 -2,4.9950442 L 6,3.3731547 11,2.5622099 23,2 30,3 46,2.5622099 45,35 z"
         style="fill:#ff9b13;fill-opacity:1;stroke:none"
         transform="translate(0,1012.3622)" />
      <path
         sodipodi:nodetypes="csssccssssc"
         inkscape:connector-curvature="0"
         id="path3034"
         d="m 39.00928,1014.2545 c 0,0 -5.00928,0.1077 -16.00928,-0.8923 -7.967148,-0.7243 -5,0 -9,0 -4,0 -5,0 -7,0 -2,0 -2.2528624,-0.1077 -8.2528624,0.8923 -2,0 -6,5.0328 0,5.0328 8,0 6.2528624,-0.9251 10.2528624,-0.9251 4,0 3.932994,-0.3222 8,-1 6,-1 6,2 10,1 4,-1 1,1 13,1 3,0 -0.99072,-5.1077 -0.99072,-5.1077 z"
         style="fill:#a7632d;fill-opacity:1;stroke:none" />
      <path
         sodipodi:nodetypes="csssccsccc"
         inkscape:connector-curvature="0"
         id="path3034-9"
         d="m 39.00928,1044.4511 c 0,0 -2.516384,0 -9.00928,-0.089 -7.999251,-0.1095 -7,1 -11,1 -4,0 -7,-1 -9,-1 -2,0 -5.2528624,0.089 -11.2528624,0.089 -2,0 -6,5.0328 0,5.0328 8,0 7.3722924,-1.0918 11.2528624,-0.1217 4,1 8.932994,0.6778 13,0 8.460129,0.1217 10.046554,0.066 16.00928,0.1217 3,0 0,-5.0328 0,-5.0328 z"
         style="fill:#a7632d;fill-opacity:1;stroke:none;display:inline" />
    </g>
  </g>
</svg>
