<?xml version="1.0" encoding="UTF-8" standalone="no"?>
<!-- Created with Inkscape (http://www.inkscape.org/) -->

<svg
   xmlns:dc="http://purl.org/dc/elements/1.1/"
   xmlns:cc="http://creativecommons.org/ns#"
   xmlns:rdf="http://www.w3.org/1999/02/22-rdf-syntax-ns#"
   xmlns:svg="http://www.w3.org/2000/svg"
   xmlns="http://www.w3.org/2000/svg"
   xmlns:sodipodi="http://sodipodi.sourceforge.net/DTD/sodipodi-0.dtd"
   xmlns:inkscape="http://www.inkscape.org/namespaces/inkscape"
   width="500"
   height="80"
   id="svg3003"
   version="1.1"
   inkscape:version="0.48.2 r9819"
   sodipodi:docname="overlay.svg"
   inkscape:export-filename="D:\School\Comp 1140\Eclipse Projects\twt\WildWest\src\game\overlay.png"
   inkscape:export-xdpi="90"
   inkscape:export-ydpi="90">
  <defs
     id="defs3005">
    <inkscape:path-effect
       effect="spiro"
       id="path-effect3895"
       is_visible="true" />
    <inkscape:path-effect
       effect="spiro"
       id="path-effect3891"
       is_visible="true" />
    <inkscape:path-effect
       effect="spiro"
       id="path-effect3887"
       is_visible="true" />
    <inkscape:path-effect
       effect="spiro"
       id="path-effect3883"
       is_visible="true" />
    <inkscape:path-effect
       effect="spiro"
       id="path-effect3879"
       is_visible="true" />
    <inkscape:path-effect
       effect="spiro"
       id="path-effect3875"
       is_visible="true" />
    <inkscape:path-effect
       effect="spiro"
       id="path-effect3871"
       is_visible="true" />
    <inkscape:path-effect
       effect="spiro"
       id="path-effect3867"
       is_visible="true" />
    <inkscape:path-effect
       effect="spiro"
       id="path-effect3863"
       is_visible="true" />
  </defs>
  <sodipodi:namedview
     id="base"
     pagecolor="#ffffff"
     bordercolor="#666666"
     borderopacity="1.0"
     inkscape:pageopacity="0.0"
     inkscape:pageshadow="2"
     inkscape:zoom="1"
     inkscape:cx="10.558264"
     inkscape:cy="49.348009"
     inkscape:document-units="px"
     inkscape:current-layer="layer6"
     showgrid="false"
     showborder="true"
     inkscape:window-width="1920"
     inkscape:window-height="1018"
     inkscape:window-x="-8"
     inkscape:window-y="-8"
     inkscape:window-maximized="1"
     showguides="true"
     inkscape:guide-bbox="true"
     inkscape:snap-grids="false"
     inkscape:snap-page="false">
    <sodipodi:guide
       orientation="1,0"
       position="249.96225,59.39697"
       id="guide3011" />
    <inkscape:grid
       type="xygrid"
       id="grid3805"
       empspacing="5"
       visible="true"
       enabled="true"
       snapvisiblegridlinesonly="true" />
  </sodipodi:namedview>
  <metadata
     id="metadata3008">
    <rdf:RDF>
      <cc:Work
         rdf:about="">
        <dc:format>image/svg+xml</dc:format>
        <dc:type
           rdf:resource="http://purl.org/dc/dcmitype/StillImage" />
        <dc:title></dc:title>
      </cc:Work>
    </rdf:RDF>
  </metadata>
  <g
     inkscape:groupmode="layer"
     id="layer4"
     inkscape:label="Layer#2"
     transform="translate(0,30)">
    <path
       sodipodi:nodetypes="ccccccc"
       inkscape:connector-curvature="0"
       id="path3809"
       d="m 72.852258,-47.901363 0.233243,-4.428236 19.189628,2.793265 0.506035,3.773069 -0.1581,64.444944 -19.833987,-3.665089 z"
       style="fill:#673800;fill-opacity:1;stroke:none" />
    <path
       inkscape:connector-curvature="0"
       id="path3813"
       d="M 91.912244,-56.987804 86.898402,8.6789911 69.459349,6.8464284 69.392904,-57.293228 z"
       style="fill:#884a00;fill-opacity:1;stroke:none"
       sodipodi:nodetypes="ccccc" />
    <path
       sodipodi:nodetypes="ccccccc"
       inkscape:connector-curvature="0"
       id="path3809-1"
       d="m 399.39195,-52.444959 5.08152,-7.177082 14.50699,2.793267 0.38253,3.773073 -0.11952,64.444939 -14.9941,-3.6650887 z"
       style="fill:#673800;fill-opacity:1;stroke:none" />
    <path
       inkscape:connector-curvature="0"
       id="path3813-7"
       d="m 421.49316,-57.064534 0,64.1396593 -17.86583,-3.6651239 -1.165,-57.4202654 z"
       style="fill:#884a00;fill-opacity:1;stroke:none"
       sodipodi:nodetypes="ccccc" />
  </g>
  <g
     inkscape:label="Layer 1"
     inkscape:groupmode="layer"
     id="layer1"
     transform="translate(0,-972.3622)">
    <path
       style="fill:#673800;fill-opacity:1;stroke:none"
       d="m 11.138932,978.18315 2.607657,-1.42043 466.657031,2.41783 3.94281,2.15478 4.28224,6.58938 -3.90982,3.04917 3.63449,13.56822 -4.65335,10.8138 3.58269,0.292 1.89033,13.4147 -6.1782,9.6242 0.21378,7.8294 -473.2642662,-3.5462 5.6587272,-14.7642 -4.674134,-8.8692 4.688888,-1.7055 -5.231579,-11.3184 3.232918,-7.3134 1.182376,-11.01829 z"
       id="path3013"
       inkscape:connector-curvature="0"
       sodipodi:nodetypes="cccccccccccccccccccc" />
  </g>
  <g
     inkscape:groupmode="layer"
     id="layer3"
     inkscape:label="Layer#1"
     transform="translate(0,30)">
    <path
       style="fill:#361e00;fill-opacity:1;stroke:none"
       d="m 10.416073,40.531347 5.087961,-2.457196 464.598646,2.686268 3.2429,3.366691 z"
       id="path3807"
       inkscape:connector-curvature="0"
       sodipodi:nodetypes="ccccc" />
    <path
       inkscape:connector-curvature="0"
       id="path3811"
       d="m 56.801762,15.810519 0.988978,-3.28334 49.75761,2.748844 0.92718,4.352332 z"
       style="fill:#361e00;fill-opacity:1;stroke:none" />
  </g>
  <g
     inkscape:groupmode="layer"
     id="layer2"
     inkscape:label="Layer"
     transform="translate(0,30)">
    <path
       style="fill:#a55a00;fill-opacity:1;stroke:none"
       d="m 480.33562,-23.226526 4.89001,8.596043 -3.44818,2.818403 3.70323,14.0277904 -4.49575,11.3374806 3.69058,0.215827 1.5729,12.420398 -5.46832,8.631524 -0.4445,6.092192 -464.876261,-2.748843 2.375192,-13.114187 -3.834454,-8.091289 4.209889,-1.225769 -4.510399,-10.5457393 2.737412,-6.7116019 0.351254,-15.2606668 -2.866046,-9.190405 z"
       id="path3783"
       inkscape:connector-curvature="0"
       sodipodi:nodetypes="cccccccccccccccccc" />
  </g>
  <g
     inkscape:groupmode="layer"
     id="layer5"
     inkscape:label="Grain">
    <path
       style="fill:none;stroke:#c97300;stroke-width:1.89029586px;stroke-linecap:butt;stroke-linejoin:miter;stroke-opacity:0.46808514"
       d="m 16.557207,13.042177 c 35.732709,0.2436 71.462495,0.91592 107.179073,2.016768 40.7409,1.255706 81.46889,3.069055 122.22597,3.577342 57.0246,0.711161 114.06283,-1.133036 171.08255,-0.102296 21.71482,0.392537 43.4221,1.202031 65.10585,2.427887 l 0.47713,0.04387"
       id="path3861"
       inkscape:path-effect="#path-effect3863"
       inkscape:original-d="m 16.557207,13.042177 c 5.623251,-0.21719 69.390854,-0.465408 107.179073,2.016768 37.78821,2.482176 28.5193,5.665378 122.22597,3.577342 93.70668,-2.088036 90.1078,-3.577342 171.08255,-0.102296 80.97473,3.475047 65.10585,2.427887 65.10585,2.427887 l 0.47713,0.04387"
       inkscape:connector-curvature="0" />
    <path
       style="fill:none;stroke:#6d3e00;stroke-width:1.89029586px;stroke-linecap:butt;stroke-linejoin:miter;stroke-opacity:0.27127662"
       d="m 16.669671,22.877799 c 48.435176,0.06196 96.870219,0.227441 145.304689,0.496435 37.63924,0.20904 75.27844,0.480597 112.91477,0.992871 34.18829,0.465343 68.37682,1.129331 102.56801,0.99287 31.3416,-0.125088 62.68901,-0.9227 94.02068,-0.124109 3.89952,0.09939 7.79841,0.223504 11.69635,0.372327"
       id="path3865"
       inkscape:path-effect="#path-effect3867"
       inkscape:original-d="m 16.669671,22.877799 c 24.742289,0 71.077831,-2.730393 145.304689,0.496435 74.22684,3.226829 73.77698,0.868762 112.91477,0.992871 39.1378,0.124109 43.63639,-1.489306 102.56801,0.99287 58.93162,2.482176 77.82573,-0.868761 94.02068,-0.124109 16.19495,0.744653 11.69635,0.372327 11.69635,0.372327"
       inkscape:connector-curvature="0" />
    <path
       style="fill:none;stroke:#5e3600;stroke-width:1.89029586px;stroke-linecap:butt;stroke-linejoin:miter;stroke-opacity:0.30319148"
       d="m 15.320088,7.736527 c 42.134143,0.8218296 84.271405,1.4837493 126.410572,1.98574 28.64293,0.341214 57.28824,0.608565 85.92321,1.365197 29.53994,0.780544 59.07211,2.081818 88.62235,2.109849 38.54299,0.03656 77.07782,-2.093149 115.61395,-1.365196 17.87012,0.337569 35.72862,1.28982 53.5333,2.854502"
       id="path3869"
       inkscape:path-effect="#path-effect3871"
       inkscape:original-d="m 15.320088,7.736527 c 15.29524,0 84.573632,2.358067 126.410572,1.98574 41.83696,-0.372326 49.48457,-0.99287 85.92321,1.365197 36.43863,2.358067 17.99438,4.592025 88.62235,2.109849 70.62798,-2.482175 79.17531,-3.599155 115.61395,-1.365196 36.43863,2.233958 53.5333,2.854502 53.5333,2.854502"
       inkscape:connector-curvature="0" />
    <path
       style="fill:none;stroke:#884d00;stroke-width:1.89029586px;stroke-linecap:butt;stroke-linejoin:miter;stroke-opacity:1"
       d="m 15.797041,30.572544 c 44.746716,3.097606 89.650409,3.926414 134.480959,2.482176 24.59345,-0.79229 49.17094,-2.268179 73.77698,-2.358067 41.86295,-0.15293 83.64945,3.705956 125.51087,4.09559 37.04951,0.344846 74.06872,-2.028296 111.11533,-2.606284 7.94681,-0.123983 15.8949,-0.165356 23.84257,-0.124109"
       id="path3873"
       inkscape:path-effect="#path-effect3875"
       inkscape:original-d="m 15.797041,30.572544 c 70.627974,1.241088 91.744289,2.482176 134.480959,2.482176 42.73667,0 21.14341,-2.358067 73.77698,-2.358067 52.63359,0 71.07784,3.475046 125.51087,4.09559 54.43302,0.620544 93.57081,-2.606284 111.11533,-2.606284 17.54453,0 23.84257,-0.124109 23.84257,-0.124109"
       inkscape:connector-curvature="0"
       sodipodi:nodetypes="cssssc" />
    <path
       style="fill:none;stroke:#c97300;stroke-width:1.89029586px;stroke-linecap:butt;stroke-linejoin:miter;stroke-opacity:0.46808514"
       d="m 15.320088,39.632486 c 43.10845,-3.017654 86.393172,-3.515218 129.559602,-1.489305 39.67086,1.861857 79.27358,5.853335 118.9876,5.652746 38.94144,-0.196686 77.79884,-4.42482 116.73887,-4.039332 28.20558,0.279222 56.45517,2.977552 84.57362,0.744653 6.02168,-0.478184 12.02542,-1.182126 17.99439,-2.10985"
       id="path3877"
       inkscape:path-effect="#path-effect3879"
       inkscape:original-d="m 15.320088,39.632486 c 58.0319,-1.241088 42.736672,-2.358067 129.559602,-1.489305 86.82291,0.868761 -203.142431,188.982479 118.9876,5.652746 24.72832,-14.073309 81.64982,-4.908093 116.73887,-4.039332 35.08905,0.868762 69.72825,2.482176 84.57362,0.744653 14.84537,-1.737523 17.99439,-2.10985 17.99439,-2.10985"
       inkscape:connector-curvature="0"
       sodipodi:nodetypes="cssssc" />
    <path
       style="fill:none;stroke:#884d00;stroke-width:1.89029586px;stroke-linecap:butt;stroke-linejoin:miter;stroke-opacity:1"
       d="m 17.87387,45.580323 c 31.39057,-0.02323 62.781373,0.269504 94.16605,0.878147 31.34141,0.607804 62.67668,1.530634 94.02068,1.985741 22.79248,0.330941 45.59344,0.414474 68.37868,-0.248218 27.15698,-0.789841 54.27309,-2.639136 81.42459,-3.599155 42.88474,-1.516313 85.84792,-0.811774 128.65988,2.10985"
       id="path3881"
       inkscape:path-effect="#path-effect3883"
       inkscape:original-d="m 17.87387,45.580323 c 70.178116,-0.248218 36.584021,-1.604029 94.16605,0.878147 57.58205,2.482176 29.24089,-2.10985 94.02068,1.985741 64.7798,4.09559 65.67951,-0.248218 68.37868,-0.248218 2.69915,0 -0.89973,-5.336678 81.42459,-3.599155 82.32433,1.737523 128.65988,2.10985 128.65988,2.10985"
       inkscape:connector-curvature="0"
       sodipodi:nodetypes="cssssc" />
    <path
       style="fill:none;stroke:#5e3600;stroke-width:1.89029586px;stroke-linecap:butt;stroke-linejoin:miter;stroke-opacity:0.30319148"
       d="m 17.569398,53.780889 c 47.044331,-2.283471 94.181372,-2.656206 141.255932,-1.116979 36.73575,1.201172 73.47623,3.566391 110.21562,2.482175 19.06003,-0.56248 38.08073,-2.052671 57.13219,-2.854502 36.2613,-1.526152 72.57395,-0.55684 108.86604,-0.248217 16.94431,0.144092 33.88984,0.144092 50.83415,0"
       id="path3885"
       inkscape:path-effect="#path-effect3887"
       inkscape:original-d="m 17.569398,53.780889 c 66.579223,0 54.119018,-3.599155 141.255932,-1.116979 87.13692,2.482175 98.06942,3.226828 110.21562,2.482175 12.14622,-0.744652 8.9972,-3.350937 57.13219,-2.854502 48.13498,0.496435 71.07783,-2.482176 108.86604,-0.248217 37.78822,2.233958 50.83415,0 50.83415,0"
       inkscape:connector-curvature="0" />
    <path
       style="fill:none;stroke:#5e3600;stroke-width:1.89029586px;stroke-linecap:butt;stroke-linejoin:miter;stroke-opacity:0.30319148"
       d="m 17.393497,59.986328 c 43.240278,-0.916755 86.503493,-0.751207 129.735493,0.496436 37.78435,1.090428 75.5752,3.007484 113.36463,2.109849 31.06652,-0.737942 62.06071,-3.376964 93.12095,-4.343808 27.13211,-0.844569 54.2874,-0.412351 81.42461,0.248218 15.59722,0.379665 31.19259,0.834737 46.78541,1.365197"
       id="path3889"
       inkscape:path-effect="#path-effect3891"
       inkscape:original-d="m 17.393497,59.986328 c 39.137791,-0.620544 68.554564,-2.109849 129.735493,0.496436 61.18091,2.606284 45.88568,3.226828 113.36463,2.109849 67.47896,-1.116979 51.73386,-6.329548 93.12095,-4.343808 41.3871,1.985741 33.73948,-1.116979 81.42461,0.248218 47.68512,1.365197 46.78541,1.365197 46.78541,1.365197"
       inkscape:connector-curvature="0"
       sodipodi:nodetypes="cssssc" />
    <path
       style="fill:none;stroke:#884d00;stroke-width:1.89029586px;stroke-linecap:butt;stroke-linejoin:miter;stroke-opacity:1"
       d="m 16.016829,65.955022 c 53.297345,0.844391 106.599611,1.378384 159.903171,1.601943 39.29146,0.164791 78.59222,0.160777 117.86324,-1.116979 31.64277,-1.029556 63.26272,-2.885953 94.9204,-3.226829 30.46852,-0.328072 60.95213,0.749061 91.32151,3.226829"
       id="path3893"
       inkscape:path-effect="#path-effect3895"
       inkscape:original-d="m 16.016829,65.955022 c 0,0 109.518891,2.098378 159.903171,1.601943 50.38428,-0.496435 9.44705,0.248217 117.86324,-1.116979 108.41618,-1.365197 24.74228,-6.701875 94.9204,-3.226829 70.1781,3.475046 91.32151,3.226829 91.32151,3.226829"
       inkscape:connector-curvature="0"
       sodipodi:nodetypes="csssc"
       inkscape:export-xdpi="90"
       inkscape:export-ydpi="90" />
  </g>
  <g
     inkscape:groupmode="layer"
     id="layer6"
     inkscape:label="Nails">
    <path
       sodipodi:type="arc"
       style="fill:#7a4f1e;fill-opacity:1;stroke:none"
       id="path3898"
       sodipodi:cx="204.0708"
       sodipodi:cy="15.398231"
       sodipodi:rx="2.1238937"
       sodipodi:ry="2.1238937"
       d="m 206.19469,15.398231 a 2.1238937,2.1238937 0 1 1 -4.24778,0 2.1238937,2.1238937 0 1 1 4.24778,0 z"
       transform="translate(-121.28856,2.4778761)" />
    <path
       sodipodi:type="arc"
       style="fill:#7a4f1e;fill-opacity:1;stroke:none"
       id="path3898-4"
       sodipodi:cx="204.0708"
       sodipodi:cy="15.398231"
       sodipodi:rx="2.1238937"
       sodipodi:ry="2.1238937"
       d="m 206.19469,15.398231 a 2.1238937,2.1238937 0 1 1 -4.24778,0 2.1238937,2.1238937 0 1 1 4.24778,0 z"
       transform="translate(-118.89919,20.79646)" />
    <path
       sodipodi:type="arc"
       style="fill:#7a4f1e;fill-opacity:1;stroke:none"
       id="path3898-0"
       sodipodi:cx="204.0708"
       sodipodi:cy="15.398231"
       sodipodi:rx="2.1238937"
       sodipodi:ry="2.1238937"
       d="m 206.19469,15.398231 a 2.1238937,2.1238937 0 1 1 -4.24778,0 2.1238937,2.1238937 0 1 1 4.24778,0 z"
       transform="translate(-122.43901,33.982301)" />
    <path
       sodipodi:type="arc"
       style="fill:#7a4f1e;fill-opacity:1;stroke:none"
       id="path3898-9"
       sodipodi:cx="204.0708"
       sodipodi:cy="15.398231"
       sodipodi:rx="2.1238937"
       sodipodi:ry="2.1238937"
       d="m 206.19469,15.398231 a 2.1238937,2.1238937 0 1 1 -4.24778,0 2.1238937,2.1238937 0 1 1 4.24778,0 z"
       transform="translate(-119.21651,45.561116)" />
    <path
       sodipodi:type="arc"
       style="fill:#7a4f1e;fill-opacity:1;stroke:none"
       id="path3898-48"
       sodipodi:cx="204.0708"
       sodipodi:cy="15.398231"
       sodipodi:rx="2.1238937"
       sodipodi:ry="2.1238937"
       d="m 206.19469,15.398231 a 2.1238937,2.1238937 0 1 1 -4.24778,0 2.1238937,2.1238937 0 1 1 4.24778,0 z"
       transform="translate(208.46901,-1.0012137)" />
    <path
       sodipodi:type="arc"
       style="fill:#7a4f1e;fill-opacity:1;stroke:none"
       id="path3898-8"
       sodipodi:cx="204.0708"
       sodipodi:cy="15.398231"
       sodipodi:rx="2.1238937"
       sodipodi:ry="2.1238937"
       d="m 206.19469,15.398231 a 2.1238937,2.1238937 0 1 1 -4.24778,0 2.1238937,2.1238937 0 1 1 4.24778,0 z"
       transform="translate(209.17697,12.007636)" />
    <path
       sodipodi:type="arc"
       style="fill:#7a4f1e;fill-opacity:1;stroke:none"
       id="path3898-2"
       sodipodi:cx="204.0708"
       sodipodi:cy="15.398231"
       sodipodi:rx="2.1238937"
       sodipodi:ry="2.1238937"
       d="m 206.19469,15.398231 a 2.1238937,2.1238937 0 1 1 -4.24778,0 2.1238937,2.1238937 0 1 1 4.24778,0 z"
       transform="translate(214.13273,23.512061)" />
    <path
       sodipodi:type="arc"
       style="fill:#7a4f1e;fill-opacity:1;stroke:none"
       id="path3898-45"
       sodipodi:cx="204.0708"
       sodipodi:cy="15.398231"
       sodipodi:rx="2.1238937"
       sodipodi:ry="2.1238937"
       d="m 206.19469,15.398231 a 2.1238937,2.1238937 0 1 1 -4.24778,0 2.1238937,2.1238937 0 1 1 4.24778,0 z"
       transform="translate(213.15927,44.839494)" />
    <text
       xml:space="preserve"
       style="font-size:40px;font-style:normal;font-variant:normal;font-weight:normal;font-stretch:normal;line-height:125%;letter-spacing:0px;word-spacing:0px;fill:#000000;fill-opacity:1;stroke:none;font-family:Georgia;-inkscape-font-specification:Georgia"
       x="200.31883"
       y="16.018278"
       id="text3960"
       sodipodi:linespacing="125%"
       transform="matrix(0.99939083,0.0348995,-0.0348995,0.99939083,0,0)"><tspan
         sodipodi:role="line"
         id="tspan3962"
         x="200.31883"
         y="16.018278"
         style="font-size:16px;font-family:Berlin Sans FB;-inkscape-font-specification:Berlin Sans FB">remaining time</tspan></text>
    <text
       xml:space="preserve"
       style="font-size:14px;font-style:normal;font-variant:normal;font-weight:normal;font-stretch:normal;line-height:125%;letter-spacing:0px;word-spacing:0px;fill:#000000;fill-opacity:1;stroke:none;font-family:Berlin Sans FB;-inkscape-font-specification:Berlin Sans FB"
       x="330.34598"
       y="42.623264"
       id="text3966"
       sodipodi:linespacing="125%"
       transform="matrix(0.99862953,-0.05233596,0.05233596,0.99862953,0,0)"><tspan
         sodipodi:role="line"
         id="tspan3968"
         x="330.34598"
         y="42.623264"
         style="font-size:16px">score</tspan></text>
    <text
       xml:space="preserve"
       style="font-size:14px;font-style:normal;font-variant:normal;font-weight:normal;font-stretch:normal;line-height:125%;letter-spacing:0px;word-spacing:0px;fill:#000000;fill-opacity:1;stroke:none;font-family:Berlin Sans FB;-inkscape-font-specification:Berlin Sans FB"
       x="142.91275"
       y="11.563138"
       id="text3966-8"
       sodipodi:linespacing="125%"
       transform="matrix(0.99756405,0.06975647,-0.06975647,0.99756405,0,0)"><tspan
         sodipodi:role="line"
         id="tspan3968-9"
         x="142.91275"
         y="11.563138"
         style="font-size:16px">level</tspan></text>
    <text
       xml:space="preserve"
       style="font-size:14px;font-style:normal;font-variant:normal;font-weight:normal;font-stretch:normal;line-height:125%;letter-spacing:0px;word-spacing:0px;fill:#000000;fill-opacity:1;stroke:none;font-family:Berlin Sans FB;-inkscape-font-specification:Berlin Sans FB"
       x="-57.405113"
       y="35.707901"
       id="text3966-8-3"
       sodipodi:linespacing="125%"
       transform="matrix(0,-1,1,0,0,0)"><tspan
         sodipodi:role="line"
         id="tspan3968-9-6"
         x="-57.405113"
         y="35.707901"
         style="font-size:16px">health</tspan></text>
    <text
       xml:space="preserve"
       style="font-size:14px;font-style:normal;font-variant:normal;font-weight:normal;font-stretch:normal;line-height:125%;letter-spacing:0px;word-spacing:0px;fill:#000000;fill-opacity:1;stroke:none;font-family:Berlin Sans FB;-inkscape-font-specification:Berlin Sans FB"
       x="16.206593"
       y="-463.83545"
       id="text3966-8-3-0"
       sodipodi:linespacing="125%"
       transform="matrix(0,1,-1,0,0,0)"><tspan
         sodipodi:role="line"
         id="tspan3968-9-6-6"
         x="16.206593"
         y="-463.83545"
         style="font-size:16px">pickup</tspan></text>
  </g>
</svg>
