<?xml version="1.0" encoding="UTF-8" standalone="no"?>
<!-- Created with Inkscape (http://www.inkscape.org/) -->

<svg
   xmlns:dc="http://purl.org/dc/elements/1.1/"
   xmlns:cc="http://creativecommons.org/ns#"
   xmlns:rdf="http://www.w3.org/1999/02/22-rdf-syntax-ns#"
   xmlns:svg="http://www.w3.org/2000/svg"
   xmlns="http://www.w3.org/2000/svg"
   xmlns:sodipodi="http://sodipodi.sourceforge.net/DTD/sodipodi-0.dtd"
   xmlns:inkscape="http://www.inkscape.org/namespaces/inkscape"
   width="40"
   height="40"
   id="svg3859"
   version="1.1"
   inkscape:version="0.48.2 r9819"
   sodipodi:docname="skull1.svg"
   inkscape:export-filename="D:\School\Comp 1140\Eclipse Projects\twt\WildWest\src\game\skull1.png"
   inkscape:export-xdpi="90"
   inkscape:export-ydpi="90">
  <defs
     id="defs3861" />
  <sodipodi:namedview
     id="base"
     pagecolor="#ffffff"
     bordercolor="#666666"
     borderopacity="1.0"
     inkscape:pageopacity="0.0"
     inkscape:pageshadow="2"
     inkscape:zoom="22.627417"
     inkscape:cx="16.110068"
     inkscape:cy="21.716371"
     inkscape:document-units="px"
     inkscape:current-layer="layer1"
     showgrid="false"
     width="40px"
     borderlayer="true"
     inkscape:showpageshadow="false"
     showguides="true"
     inkscape:guide-bbox="true"
     inkscape:window-width="1920"
     inkscape:window-height="1018"
     inkscape:window-x="-8"
     inkscape:window-y="-8"
     inkscape:window-maximized="1">
    <sodipodi:guide
       orientation="0,1"
       position="9.71875,45.03125"
       id="guide3867" />
  </sodipodi:namedview>
  <metadata
     id="metadata3864">
    <rdf:RDF>
      <cc:Work
         rdf:about="">
        <dc:format>image/svg+xml</dc:format>
        <dc:type
           rdf:resource="http://purl.org/dc/dcmitype/StillImage" />
        <dc:title></dc:title>
      </cc:Work>
    </rdf:RDF>
  </metadata>
  <g
     inkscape:label="Layer 1"
     inkscape:groupmode="layer"
     id="layer1"
     transform="translate(0,-1012.3622)">
    <path
       style="fill:#efddbd;fill-opacity:1;stroke:none"
       d="m 13.762826,1015.7296 c -2.667274,-0.027 -9.0237723,1.9512 -9.0237723,7.803 0,3.0993 2.333038,7.2792 4.371772,9.4757 2.0055363,2.1609 -0.610669,3.0339 4.5745143,3.1808 6.626475,0.1878 1.939908,-1.321 4.535138,-3.2669 2.724104,-2.0426 4.350236,-6.7436 4.350236,-9.8203 0,-5.8519 -6.293316,-7.3472 -8.807888,-7.3723 z m -3.46753,7.0708 c 0.951512,0 2.455083,2.0397 2.455083,3.015 0,0.9753 -1.934287,2.0243 -2.8858003,2.0243 -0.951512,0 -1.59365,-1.1783 -1.59365,-2.1535 0,-0.9753 1.072854,-2.8858 2.0243673,-2.8858 z m 7.73136,2.6273 c 0.963406,0 1.975835,0.6867 1.916688,1.5291 -0.09846,1.4023 -1.23022,2.9935 -2.691978,1.9167 -0.77567,-0.5714 -0.796825,-1.0723 -0.796825,-1.9167 0,-0.8445 0.608708,-1.5291 1.572115,-1.5291 z m -6.524611,4.9749 c 0.547105,-1.7184 3.112477,-1.5172 4.78245,0.4583 -2.221277,-0.7937 -3.268257,-1.0378 -4.78245,-0.4583 z"
       id="path4913"
       inkscape:connector-curvature="0"
       sodipodi:nodetypes="sscssssssssssscssccc" />
    <path
       style="fill:#efddbd;fill-opacity:1;stroke:none"
       d="m 10.510654,1036.6694 c 1.264308,1.8793 6.463111,0.7087 7.494466,0.3015 0.988283,1.2727 0.509212,2.5555 0.04307,2.9289 -0.466141,0.3734 -6.460128,0.4549 -8.1836133,-0.6461 -0.646693,-0.541 -0.101373,-1.9654 0.6460753,-2.5843 z"
       id="rect4924"
       inkscape:connector-curvature="0"
       sodipodi:nodetypes="cczcc" />
  </g>
</svg>
