<?xml version="1.0" encoding="UTF-8" standalone="no"?>
<!-- Created with Inkscape (http://www.inkscape.org/) -->

<svg
   xmlns:dc="http://purl.org/dc/elements/1.1/"
   xmlns:cc="http://creativecommons.org/ns#"
   xmlns:rdf="http://www.w3.org/1999/02/22-rdf-syntax-ns#"
   xmlns:svg="http://www.w3.org/2000/svg"
   xmlns="http://www.w3.org/2000/svg"
   xmlns:sodipodi="http://sodipodi.sourceforge.net/DTD/sodipodi-0.dtd"
   xmlns:inkscape="http://www.inkscape.org/namespaces/inkscape"
   width="40"
   height="40"
   id="svg2"
   version="1.1"
   inkscape:version="0.48.2 r9819"
   sodipodi:docname="square.svg"
   inkscape:export-filename="D:\School\Comp 1140\Eclipse Projects\twt\WildWest\src\game\sqr.png"
   inkscape:export-xdpi="90"
   inkscape:export-ydpi="90">
  <defs
     id="defs4">
    <inkscape:path-effect
       effect="spiro"
       id="path-effect3032"
       is_visible="true" />
  </defs>
  <sodipodi:namedview
     id="base"
     pagecolor="#ffffff"
     bordercolor="#666666"
     borderopacity="1.0"
     inkscape:pageopacity="0"
     inkscape:pageshadow="2"
     inkscape:zoom="15.839192"
     inkscape:cx="-5.2673018"
     inkscape:cy="17.696406"
     inkscape:document-units="px"
     inkscape:current-layer="layer1"
     showgrid="true"
     showguides="true"
     inkscape:guide-bbox="true"
     inkscape:snap-grids="true"
     inkscape:window-width="1920"
     inkscape:window-height="1018"
     inkscape:window-x="-8"
     inkscape:window-y="-8"
     inkscape:window-maximized="1">
    <sodipodi:guide
       orientation="1,0"
       position="10,37"
       id="guide2985" />
    <inkscape:grid
       type="xygrid"
       id="grid2987"
       empspacing="5"
       visible="true"
       enabled="true"
       snapvisiblegridlinesonly="true" />
    <sodipodi:guide
       orientation="1,0"
       position="20,36"
       id="guide2989" />
    <sodipodi:guide
       orientation="1,0"
       position="30,36"
       id="guide2991" />
    <sodipodi:guide
       orientation="0,1"
       position="28,30"
       id="guide2993" />
    <sodipodi:guide
       orientation="0,1"
       position="29,20"
       id="guide2995" />
    <sodipodi:guide
       orientation="0,1"
       position="36,10"
       id="guide2997" />
  </sodipodi:namedview>
  <metadata
     id="metadata7">
    <rdf:RDF>
      <cc:Work
         rdf:about="">
        <dc:format>image/svg+xml</dc:format>
        <dc:type
           rdf:resource="http://purl.org/dc/dcmitype/StillImage" />
        <dc:title></dc:title>
      </cc:Work>
    </rdf:RDF>
  </metadata>
  <g
     inkscape:groupmode="layer"
     id="layer2"
     inkscape:label="Layer">
    <path
       style="fill:#ff9b13;fill-opacity:1;stroke:none"
       d="M 4,3 C 15.157585,3.3671814 21.646773,4.6363636 33,5.4545455 L 34.626845,6.2727273 35.43779,10.363636 36,20.181818 35,25.909091 36,37 4,36 z"
       id="path3769"
       inkscape:connector-curvature="0"
       sodipodi:nodetypes="ccccccccc"
       inkscape:export-xdpi="90"
       inkscape:export-ydpi="90" />
  </g>
  <g
     inkscape:label="Layer 1"
     inkscape:groupmode="layer"
     id="layer1"
     transform="translate(0,-1012.3622)"
     style="display:inline">
    <path
       style="fill:#a7632d;fill-opacity:1;stroke:none"
       d="m 38,1049.1122 c 0,0 0,-5.5 1,-15.5833 0.7243,-7.3033 0,-4.5834 0,-8.25 0,-3.6667 0,-7.3334 0,-9.1667 -1.8598,-4.7457 -12,-1.8333 -16,-2.75 0,7.3333 11,3.6667 11,7.3333 0,3.6667 0.3222,3.6053 1,7.3334 1,5.5 -2,5.5 -1,9.1666 1,3.6667 -1,0.9167 -1,11.9167 0,2.75 5,0 5,0 z"
       id="path3034"
       inkscape:connector-curvature="0"
       sodipodi:nodetypes="cssccssssc" />
    <a
       id="a3840"
       transform="matrix(0,0.91666667,-1,0,1052.3622,1012.4455)">
      <path
         sodipodi:nodetypes="csssssccsccc"
         inkscape:connector-curvature="0"
         id="path3034-9"
         d="m 40,1045.3622 c 0,0 -4,0 -10,-1 -7.891151,-1.3152 -7,1 -11,1 -4,0 -7,-1 -9,-1 -0.748981,0 -5.4326662,2.3478 -6,-2 -0.2589447,-1.9845 1.2184539,-12.6554 2,-15 4,-12 0.1820817,-12.5458 -3,-8 -2,0 -4,27 -1,31 8,0 4.11943,-1.9701 8,-1 4,1 8.932994,0.6778 13,0 12,1 11.037274,0.9447 17,1 3,0 0,-5 0,-5 z"
         style="fill:#a7632d;fill-opacity:1;stroke:none;display:inline" />
    </a>
    <a
       style="display:inline"
       id="a3840-2"
       transform="matrix(0,-0.91666667,1,0,-1012.3622,1051.7789)">
      <path
         sodipodi:nodetypes="csssssccsccc"
         inkscape:connector-curvature="0"
         id="path3034-9-4"
         d="m 40.363636,1047.3622 c 0,0 -4,0 -10,-1 -7.891151,-1.3152 -7,1 -11,1 -4,0 -7,-1 -9,-1 -0.7489807,0 -5.4326659,2.3478 -5.9999997,-2 -0.2589447,-1.9845 1.2184539,-12.6554 2,-15 3.9999997,-12 0.5457545,-14.5458 -2.6363272,-10 -2,0 -4.36367277,29 -1.3636728,33 7.9999997,0 4.11943,-1.9701 7.9999997,-1 4,1 8.932994,0.6778 13,0 12,1 11.037274,0.9447 17,1 3,0 0,-5 0,-5 z"
         style="fill:#a7632d;fill-opacity:1;stroke:none;display:inline"
         inkscape:export-filename="D:\School\Comp 1140\Eclipse Projects\twt\WildWest\src\game\path3034-9-4.png"
         inkscape:export-xdpi="90"
         inkscape:export-ydpi="90" />
    </a>
  </g>
</svg>
